<?xml version="1.0" encoding="utf-8"?>
<!-- Generator: Adobe Illustrator 24.0.0, SVG Export Plug-In . SVG Version: 6.00 Build 0)  -->
<svg version="1.1" id="Layer_1" xmlns="http://www.w3.org/2000/svg" xmlns:xlink="http://www.w3.org/1999/xlink" x="0px" y="0px"
	 viewBox="0 0 421 420" style="enable-background:new 0 0 421 420;" xml:space="preserve">
<style type="text/css">
	.st0{fill:url(#SVGID_1_);}
	.st1{fill:url(#SVGID_2_);}
	.st2{fill:url(#SVGID_3_);}
</style>
<g>
	<g>
		<linearGradient id="SVGID_1_" gradientUnits="userSpaceOnUse" x1="1.8645" y1="210.1887" x2="418.8288" y2="210.1887">
			<stop  offset="0.1378" style="stop-color:#00EDE2"/>
			<stop  offset="0.8946" style="stop-color:#5978FF"/>
		</linearGradient>
		<path class="st0" d="M416,228.2l-23.7-6.1c0.5-7.5,0.5-15,0.1-22.5l24-6.5c1.7-0.5,2.8-2.2,2.5-3.9l-4.5-25.1l-0.1,0l-0.8-4.4
			c-0.3-1.8-1.9-3-3.7-2.8l-24.4,2.4c-2.1-7.3-4.7-14.3-7.6-21.2l20.3-14.3c1.5-1,1.9-3,1-4.6l-3.1-5.3l0,0l-12-20.6
			c-0.9-1.6-2.8-2.2-4.5-1.4l-9,4.3c2.9-3.4,5.5-6.9,7.6-10.5c3.9-7.9,5.3-16.2,3.8-23.4c0.1,4.6-1.7,9.3-5.3,12.8l-28.9,28.7
			c0,0,0,0,0,0l-25.3,25.1l0,0L283,168.1l0,0l-0.8,0.8c-38.8,38.4-101.7,38.4-140.5,0l-42.1-41.6c-17.4,23.1-27.7,51.9-27.7,83
			c0,27.2,7.8,52.5,21.4,73.9l-26.3,23.1c-0.1,0.1-0.2,0.2-0.4,0.3c-0.1-0.1-0.1-0.2-0.2-0.3c-0.1-0.2-0.2-0.4-0.4-0.5
			c-0.6-0.9-1.1-1.7-1.7-2.6c-0.2-0.3-0.4-0.6-0.6-0.9c-0.5-0.8-1.1-1.7-1.6-2.5c-0.2-0.3-0.4-0.7-0.6-1c-0.5-0.9-1-1.7-1.5-2.6
			c-0.1-0.2-0.2-0.4-0.3-0.6c-0.7-1.2-1.3-2.3-1.9-3.5c-0.1-0.1-0.2-0.3-0.2-0.4c-0.7-1.2-1.3-2.5-1.9-3.7c0-0.1-0.1-0.1-0.1-0.2
			c-9.7-19-15.7-39.7-17.9-60.9l-0.1,0c-1.6-15.3-1.1-30.9,1.4-46.2l0.1,0c3.4-20.5,10.5-40.4,20.9-58.5c2.5-4.4,5.3-8.7,8.2-12.8
			c0.9-1.1,4.6-5.5,6.5-8l-0.3-0.3l0,0L44.8,72.8c-0.4-0.4-0.8-0.9-1.2-1.3c-0.2-0.2-0.3-0.4-0.5-0.7c-0.2-0.3-0.4-0.5-0.6-0.8
			c-0.2-0.3-0.4-0.6-0.6-1c-0.1-0.2-0.2-0.3-0.3-0.5c-0.2-0.4-0.4-0.8-0.6-1.2c0-0.1-0.1-0.2-0.1-0.3c-0.2-0.5-0.4-0.9-0.5-1.4
			c0-0.1,0-0.1-0.1-0.2c-0.2-0.5-0.3-1-0.4-1.6c0,0,0,0,0,0c-0.2-1.1-0.3-2.2-0.4-3.3c0,0,0,0,0,0v0c0-0.2,0-0.4,0-0.6
			c-1.4,7.2-0.1,15.5,3.8,23.4c2.6,4.5,5.9,8.7,9.7,12.9L41.7,91c-1.6-0.8-3.6-0.1-4.4,1.4l-3.1,5.4L34,97.7l-11.8,20.6
			c-0.9,1.6-0.4,3.5,1,4.6l20.3,13.9c-3,6.9-5.6,13.9-7.8,21.1L11,155.8c-1.8-0.2-3.4,1.1-3.7,2.9l-5.1,29.5
			c-0.3,1.8,0.8,3.5,2.5,3.9l23.7,6.1c-0.5,7.5-0.5,15-0.1,22.5l-24,6.5c-1.7,0.5-2.8,2.2-2.5,3.9l4.5,25.1l0.1,0l0.8,4.4
			c0.3,1.8,1.9,3,3.7,2.8l24.4-2.4c2.1,7.3,4.7,14.3,7.6,21.2l-20.3,14.3c-1.5,1-1.9,3-1,4.6l3.1,5.3l0,0l12,20.6
			c0.9,1.6,2.8,2.2,4.5,1.4l8.5-4.1c-2.7,3.2-5,6.4-7,9.7c-3.9,7.9-5.3,16.2-3.8,23.4c0-2.3,0.4-4.6,1.3-6.8c0.4-1.1,1-2.2,1.7-3.2
			s1.4-2,2.3-2.8l9.6-9.5l32.7-32.5L98,291.4l0,0l39.9-39.6l0,0l0.8-0.8c38.8-38.4,101.7-38.4,140.5,0l42.3,41.9
			c17.1-23,27.2-51.6,27.2-82.5c0-27.4-7.9-52.9-21.6-74.3l26.7-23.5c0.1,0.2,0.2,0.3,0.3,0.5c0.1,0.2,0.2,0.4,0.4,0.5
			c0.6,0.9,1.1,1.7,1.7,2.6c0.2,0.3,0.4,0.6,0.6,0.9c0.5,0.8,1.1,1.7,1.6,2.5c0.2,0.3,0.4,0.7,0.6,1c0.5,0.9,1,1.7,1.5,2.6
			c0.1,0.2,0.2,0.4,0.3,0.6c0.7,1.2,1.3,2.3,1.9,3.5c0.1,0.1,0.2,0.3,0.2,0.4c0.7,1.2,1.3,2.5,1.9,3.7c0,0.1,0.1,0.1,0.1,0.2
			c9.7,19,15.7,39.7,17.9,60.9l0.1,0c1.6,15.3,1.1,30.9-1.4,46.2l-0.1,0c-3.4,20.5-10.5,40.4-20.9,58.5c-2.4,4.1-5,8.2-7.7,12.1
			l-0.1-0.1c0,0-4.5,5.4-6.7,8.2c0,0,0,0,0,0l6.4,6.4c0,0,0,0,0,0l17.5,17.5l5.9,5.9c0.4,0.4,0.8,0.9,1.2,1.3
			c0.2,0.2,0.3,0.4,0.5,0.7c0.2,0.3,0.4,0.5,0.6,0.8c0.2,0.3,0.4,0.6,0.6,1c0.1,0.2,0.2,0.3,0.3,0.5c0.2,0.4,0.4,0.8,0.6,1.2
			c0,0.1,0.1,0.2,0.1,0.3c0.2,0.5,0.4,0.9,0.5,1.4c0,0.1,0,0.1,0.1,0.2c0.2,0.5,0.3,1,0.4,1.6c0,0,0,0,0,0.1
			c0.2,1.1,0.3,2.2,0.4,3.3c0,0,0,0,0,0v0c0,0.2,0,0.4,0,0.6c1.4-7.2,0.1-15.5-3.8-23.4c-2.4-4.1-5.3-8-8.7-11.8l10.2,4.7
			c1.6,0.8,3.6,0.1,4.4-1.4l3.1-5.4l0.1,0.1l11.8-20.6c0.9-1.6,0.4-3.5-1-4.6l-20.3-13.9c3-6.9,5.6-13.9,7.8-21.1l24.8,2.1
			c1.8,0.2,3.4-1.1,3.7-2.9l5.1-29.5C418.8,230.4,417.7,228.7,416,228.2z"/>
		<linearGradient id="SVGID_2_" gradientUnits="userSpaceOnUse" x1="1.8645" y1="210.1887" x2="418.8288" y2="210.1887">
			<stop  offset="0.1378" style="stop-color:#00EDE2"/>
			<stop  offset="0.8946" style="stop-color:#5978FF"/>
		</linearGradient>
		<path class="st1" d="M58.3,41.9L58.3,41.9c1.3,0,2.5,0.2,3.7,0.5c0.1,0,0.1,0,0.2,0c0.4,0.1,0.8,0.2,1.2,0.3c0,0,0,0,0,0
			c1.2,0.4,2.4,0.9,3.5,1.5c0.1,0,0.2,0.1,0.2,0.1c1.2,0.7,2.4,1.6,3.5,2.7l4.3,4.3l-0.2,0.2l25,24.8c0,0,0.1-0.1,0.1-0.1l25.1,25.1
			c0,0,0,0,0,0l4.3,4.3l34.7,34.7l-0.7-0.9l4.1,4c24.7,24.3,64.3,24.3,89,0l41.1-40.8c-23.8-19.3-54.1-30.8-87.1-30.8
			c-29.2,0-56.3,9-78.6,24.5l-23.5-26.6c13.1-9.5,27.4-17.2,42.7-22.8c23-8.4,47.6-11.8,71.9-10l0-0.1c15.4,1.1,30.6,4.3,45.2,9.4
			l0,0.1c16.7,5.9,32.4,14.3,46.6,24.9c0.9,0.8,5.4,4.7,7.9,6.8L348,52.9v0l4.2-4.1c0.4-0.4,0.9-0.8,1.4-1.2
			c0.2-0.2,0.5-0.4,0.8-0.6c0.2-0.2,0.5-0.3,0.7-0.5c0.4-0.2,0.8-0.4,1.1-0.7c0.1-0.1,0.3-0.2,0.4-0.2c0.5-0.2,0.9-0.4,1.4-0.6
			c0.1,0,0.1-0.1,0.2-0.1c0.5-0.2,1.1-0.4,1.6-0.5c0,0,0,0,0,0c1.7-0.5,3.5-0.7,5.3-0.7c-7.1-1.5-15.5-0.2-23.4,3.6
			c-0.1,0-0.2,0.1-0.3,0.1l-7.9-6.6c-1.4-1.1-3.4-1-4.7,0.2l-17.2,17.5c-6.2-4.2-12.7-7.9-19.4-11.3l6.4-24c0.5-1.7-0.5-3.5-2.2-4.1
			L268.2,9c-1.7-0.6-3.6,0.2-4.3,1.8l-10.1,22.3c-7.3-1.8-14.6-3.1-22.2-4l-2.2-24.7c-0.2-1.8-1.7-3.1-3.4-3.1l-25.5,0.1l0,0.1
			l-4.5,0c-1.8,0-3.3,1.4-3.4,3.2l-1.9,24.4c-7.5,0.8-14.9,2.1-22.2,3.8l-10.6-22.5c-0.8-1.6-2.6-2.4-4.3-1.8l-28.1,10.3
			c-1.7,0.6-2.6,2.4-2.1,4.2l6.6,23.6c-6.7,3.3-13.3,7.1-19.5,11.2L92.6,40.5c-1.3-1.3-3.3-1.3-4.7-0.2l-4.7,4l0,0l-1.7,1.5
			c-0.1-0.1-0.2-0.1-0.3-0.2c-7.9-3.9-16.3-5.2-23.4-3.8C57.9,41.8,58.1,41.9,58.3,41.9L58.3,41.9z"/>
		<linearGradient id="SVGID_3_" gradientUnits="userSpaceOnUse" x1="1.8645" y1="210.1887" x2="418.8288" y2="210.1887">
			<stop  offset="0.1378" style="stop-color:#00EDE2"/>
			<stop  offset="0.8946" style="stop-color:#5978FF"/>
		</linearGradient>
		<path class="st2" d="M362.6,378C362.6,378,362.6,378,362.6,378c-1.3,0-2.5-0.2-3.7-0.5c-0.1,0-0.1,0-0.2,0
			c-0.4-0.1-0.8-0.2-1.2-0.3c0,0,0,0,0,0c-1.2-0.4-2.4-0.9-3.5-1.5c-0.1,0-0.2-0.1-0.2-0.1c-1.2-0.7-2.4-1.6-3.5-2.7l-4.1-4.1
			l0.2-0.2l-25-24.8c0,0-0.1,0.1-0.1,0.1l-24.9-24.9c0,0,0,0,0,0l-4.7-4.7L257,279.5l0.7,0.9l-4.1-4c-24.7-24.3-64.3-24.3-89,0
			l-41.7,41.3c23.8,19.4,54.3,31.1,87.4,31.1c29.4,0,56.7-9.2,79.2-24.9l23.3,26.4c0,0,0,0,0,0c-13.2,9.6-27.7,17.4-43.1,23.1
			c-23,8.4-47.6,11.8-71.9,10l0,0.1c-15.4-1.1-30.6-4.3-45.2-9.4l0-0.1c-16.7-5.9-32.4-14.3-46.6-24.9c0.1-0.1,0.2-0.2,0.3-0.3
			l0.1-0.1c0,0-5.3-4.6-8-6.9L68.8,371c-0.4,0.4-0.9,0.8-1.4,1.2c-0.2,0.2-0.5,0.4-0.7,0.5c-0.2,0.2-0.5,0.4-0.7,0.5
			c-0.4,0.2-0.7,0.4-1.1,0.7c-0.1,0.1-0.3,0.2-0.4,0.2c-0.5,0.2-0.9,0.4-1.4,0.6c-0.1,0-0.1,0.1-0.2,0.1c-0.5,0.2-1.1,0.4-1.6,0.5
			c0,0,0,0,0,0c-1.7,0.5-3.5,0.7-5.3,0.7c7.1,1.5,15.3,0.3,23.1-3.5l8.2,6.9c1.4,1.1,3.4,1,4.7-0.2l17.2-17.5
			c6.2,4.2,12.7,7.9,19.4,11.3l-6.4,24c-0.5,1.7,0.5,3.5,2.2,4.1l28.2,10.1c1.7,0.6,3.6-0.2,4.3-1.8l10.1-22.3
			c7.3,1.8,14.6,3.1,22.2,4l2.2,24.7c0.2,1.8,1.7,3.1,3.4,3.1l25.5-0.1l0-0.1l4.5,0c1.8,0,3.3-1.4,3.4-3.2l1.9-24.4
			c7.5-0.8,14.9-2.1,22.2-3.8l10.6,22.5c0.8,1.6,2.6,2.4,4.3,1.8l28.1-10.3c1.7-0.6,2.6-2.4,2.1-4.2l-6.6-23.6
			c6.7-3.3,13.3-7.1,19.5-11.2l17.6,17.5c1.3,1.3,3.3,1.3,4.7,0.2l4.7-4l0,0l2.2-1.9c0,0,0,0,0.1,0c7.9,3.9,16.3,5.2,23.4,3.8
			C363,378,362.8,378,362.6,378L362.6,378z"/>
	</g>
</g>
</svg>
